<svg xmlns="http://www.w3.org/2000/svg" width="833" height="952" fill="none" viewBox="0 0 833 952"><path fill="url(#paint0_linear)" d="M644.843 606.492V422.227L738.876 475.999V660.264L644.843 606.492Z"/><path fill="url(#paint1_linear)" d="M188.066 606.492V422.227L94.0332 475.999V660.264L188.066 606.492Z"/><path fill="url(#paint2_linear)" d="M0 422.228L94.0332 476L188.066 422.228L94.0332 368.531L0 422.228Z"/><path fill="url(#paint3_linear)" d="M255.244 752.36L349.277 698.587L188.066 606.492L94.0332 660.265L255.244 752.36Z"/><path fill="url(#paint4_linear)" d="M577.665 752.36L738.876 660.265L644.843 606.492L483.632 698.587L577.665 752.36Z"/><path fill="url(#paint5_linear)" d="M483.632 806.133V698.588L577.665 752.36V859.83L483.632 806.133Z"/><path fill="url(#paint6_linear)" d="M832.909 422.228L738.876 476L644.843 422.228L738.876 368.531L832.909 422.228Z"/><path fill="url(#paint7_linear)" d="M349.277 806.133V698.588L255.244 752.36V859.83L349.277 806.133Z"/><path fill="url(#paint8_linear)" d="M483.632 621.868V514.398L577.665 568.095V675.564L483.632 621.868Z"/><path fill="url(#paint9_linear)" d="M255.244 199.64V307.109L161.211 253.336V145.867L255.244 199.64Z"/><path fill="url(#paint10_linear)" d="M577.665 199.64V307.109L671.699 253.336V145.867L577.665 199.64Z"/><path fill="url(#paint11_linear)" d="M738.876 291.735L738.187 399.129L644.843 345.432V237.963L738.876 291.735Z"/><path fill="url(#paint12_linear)" d="M255.244 199.639V307.109L416.455 214.938V107.469L255.244 199.639Z"/><path fill="url(#paint13_linear)" d="M577.665 199.639V307.109L416.455 214.938V107.469L577.665 199.639Z"/><path fill="url(#paint14_linear)" d="M349.277 621.868V514.398L255.244 568.095V675.564L349.277 621.868Z"/><path fill="url(#paint15_linear)" d="M416.455 291.887V368.532L322.421 314.759V237.963L416.455 291.887Z"/><path fill="url(#paint16_linear)" d="M416.455 291.887V368.532L510.488 314.759V237.963L416.455 291.887Z"/><path fill="url(#paint17_linear)" d="M255.244 568.094L349.277 514.397L255.244 460.625L161.211 514.397L255.244 568.094Z"/><path fill="url(#paint18_linear)" d="M577.665 568.094L483.632 514.397L577.665 460.625L671.698 514.397L577.665 568.094Z"/><path fill="url(#paint19_linear)" d="M94.0332 291.735V399.205L188.066 345.432V237.963L94.0332 291.735Z"/><path fill="url(#paint20_linear)" d="M322.421 790.759L416.455 844.456L510.488 790.759L416.455 736.986L322.421 790.759Z"/><path fill="url(#paint21_linear)" d="M671.699 514.399V621.868L577.665 675.565V568.095L671.699 514.399ZM738.876 291.735L738.187 399.129L832.068 345.508V238.266L738.876 291.735ZM832.909 422.228V713.963L577.665 859.83V752.361L738.876 660.266V476.001L832.909 422.228ZM416.455 844.456V952.001L510.488 898.228V790.759L416.455 844.456ZM416.455 476.001V767.735L510.488 713.963V529.697L671.699 437.602V330.133L416.455 476.001Z"/><path fill="url(#paint22_linear)" d="M255.244 568.096V675.565L161.211 621.792V514.399L255.244 568.096ZM0 237.963V345.432L94.0332 399.205V291.735L0 237.963ZM94.0332 476.001V660.266L255.244 752.361V859.83L0 713.963V422.228L94.0332 476.001ZM322.421 790.759V898.228L416.455 952.001V844.456L322.421 790.759ZM161.211 330.133V437.603L322.421 529.698V713.963L416.455 767.735V476.001L161.211 330.133Z"/><path fill="url(#paint23_linear)" d="M416.455 184.265L510.488 238.038L416.455 291.962L322.421 238.038L416.455 184.265ZM0 237.962L94.0332 291.735L188.066 237.962L94.0332 184.19L0 237.962ZM644.843 237.962L738.876 291.735L832.068 238.265L738.187 184.644L644.843 237.962ZM416.455 0L161.211 145.867L255.244 199.64L416.455 107.545L577.665 199.64L671.699 145.867L416.455 0ZM416.455 368.531L255.244 276.36L161.211 330.133L416.455 476L671.699 330.133L577.665 276.36L416.455 368.531Z"/><defs><linearGradient id="paint0_linear" x1="644.806" x2="738.84" y1="541.235" y2="541.235" gradientUnits="userSpaceOnUse"><stop stop-color="#14161B"/><stop offset="1" stop-color="#1D2128"/></linearGradient><linearGradient id="paint1_linear" x1="188.069" x2="94.034" y1="541.235" y2="541.235" gradientUnits="userSpaceOnUse"><stop stop-color="#14161B"/><stop offset="1" stop-color="#1D2128"/></linearGradient><linearGradient id="paint2_linear" x1="0" x2="188.065" y1="422.242" y2="422.242" gradientUnits="userSpaceOnUse"><stop stop-color="#2B323A"/><stop offset=".384" stop-color="#20252C"/><stop offset=".732" stop-color="#14161B"/></linearGradient><linearGradient id="paint3_linear" x1="221.652" x2="221.652" y1="752.357" y2="606.492" gradientUnits="userSpaceOnUse"><stop stop-color="#2D343F"/><stop offset="1" stop-color="#14161B"/></linearGradient><linearGradient id="paint4_linear" x1="611.222" x2="611.222" y1="752.357" y2="606.492" gradientUnits="userSpaceOnUse"><stop stop-color="#2D343F"/><stop offset="1" stop-color="#14161B"/></linearGradient><linearGradient id="paint5_linear" x1="483.605" x2="577.639" y1="779.23" y2="779.23" gradientUnits="userSpaceOnUse"><stop stop-color="#14161B"/><stop offset="1" stop-color="#303842"/></linearGradient><linearGradient id="paint6_linear" x1="832.874" x2="644.809" y1="422.242" y2="422.242" gradientUnits="userSpaceOnUse"><stop stop-color="#2B323A"/><stop offset=".384" stop-color="#20252C"/><stop offset=".732" stop-color="#14161B"/></linearGradient><linearGradient id="paint7_linear" x1="255.235" x2="349.269" y1="779.23" y2="779.23" gradientUnits="userSpaceOnUse"><stop stop-color="#303842"/><stop offset="1" stop-color="#14161B"/></linearGradient><linearGradient id="paint8_linear" x1="483.605" x2="577.639" y1="594.976" y2="594.976" gradientUnits="userSpaceOnUse"><stop stop-color="#14161B"/><stop offset=".517" stop-color="#22272D"/><stop offset="1" stop-color="#2B323A"/></linearGradient><linearGradient id="paint9_linear" x1="184.71" x2="231.012" y1="266.779" y2="185.759" gradientUnits="userSpaceOnUse"><stop stop-color="#14161B"/><stop offset="1" stop-color="#323842"/></linearGradient><linearGradient id="paint10_linear" x1="601.146" x2="647.448" y1="186.168" y2="267.188" gradientUnits="userSpaceOnUse"><stop stop-color="#323842"/><stop offset="1" stop-color="#14161B"/></linearGradient><linearGradient id="paint11_linear" x1="715.077" x2="668.642" y1="278.15" y2="359.403" gradientUnits="userSpaceOnUse"><stop stop-color="#2D343F"/><stop offset="1" stop-color="#14161B"/></linearGradient><linearGradient id="paint12_linear" x1="312.327" x2="358.629" y1="166.975" y2="247.995" gradientUnits="userSpaceOnUse"><stop stop-color="#2D343F"/><stop offset="1" stop-color="#14161B"/></linearGradient><linearGradient id="paint13_linear" x1="473.529" x2="519.831" y1="247.586" y2="166.566" gradientUnits="userSpaceOnUse"><stop stop-color="#14161B"/><stop offset="1" stop-color="#2D343F"/></linearGradient><linearGradient id="paint14_linear" x1="349.27" x2="255.236" y1="594.976" y2="594.976" gradientUnits="userSpaceOnUse"><stop stop-color="#14161B"/><stop offset=".517" stop-color="#22272D"/><stop offset="1" stop-color="#2B323A"/></linearGradient><linearGradient id="paint15_linear" x1="359.564" x2="378.89" y1="358.576" y2="247.85" gradientUnits="userSpaceOnUse"><stop stop-color="#14161B"/><stop offset="1" stop-color="#2D343F"/></linearGradient><linearGradient id="paint16_linear" x1="450.776" x2="475.662" y1="374.496" y2="231.915" gradientUnits="userSpaceOnUse"><stop stop-color="#14161B"/><stop offset="1" stop-color="#2D343F"/></linearGradient><linearGradient id="paint17_linear" x1="213.832" x2="270.827" y1="574.363" y2="490.072" gradientUnits="userSpaceOnUse"><stop stop-color="#2B323A"/><stop offset=".483" stop-color="#22272D"/><stop offset="1" stop-color="#14161B"/></linearGradient><linearGradient id="paint18_linear" x1="619.042" x2="562.047" y1="574.364" y2="490.073" gradientUnits="userSpaceOnUse"><stop stop-color="#2B323A"/><stop offset=".483" stop-color="#22272D"/><stop offset="1" stop-color="#14161B"/></linearGradient><linearGradient id="paint19_linear" x1="162.99" x2="71.892" y1="356.214" y2="196.811" gradientUnits="userSpaceOnUse"><stop stop-color="#14161B"/><stop offset="1" stop-color="#2D343F"/></linearGradient><linearGradient id="paint20_linear" x1="416.435" x2="416.435" y1="737.008" y2="844.486" gradientUnits="userSpaceOnUse"><stop stop-color="#14161B"/><stop offset=".517" stop-color="#22272D"/><stop offset="1" stop-color="#2B323A"/></linearGradient><linearGradient id="paint21_linear" x1="428.826" x2="824.573" y1="932.966" y2="235.875" gradientUnits="userSpaceOnUse"><stop stop-color="#303842"/><stop offset="1" stop-color="#14161B"/></linearGradient><linearGradient id="paint22_linear" x1=".002" x2="405.665" y1="713.973" y2="477.363" gradientUnits="userSpaceOnUse"><stop stop-color="#14161B"/><stop offset=".363" stop-color="#1C1F25"/><stop offset=".988" stop-color="#303741"/><stop offset="1" stop-color="#303842"/></linearGradient><linearGradient id="paint23_linear" x1="416.021" x2="416.021" y1="475.982" y2="0" gradientUnits="userSpaceOnUse"><stop stop-color="#1E222A"/><stop offset="1" stop-color="#2D343F"/></linearGradient></defs></svg>